<svg width="368" height="194" viewBox="0 0 368 194" fill="none" xmlns="http://www.w3.org/2000/svg">
<rect width="368" height="194" fill="url(#paint0_radial_272_1435)"/>
<path d="M226.577 53.9406L220.007 53.4435C218.594 50.8915 215.768 49.2894 212.703 49.6009L205.907 50.2822C204.268 47.2761 200.736 45.6876 197.317 46.6515L189.87 48.7646C187.723 46.1265 184.008 45.2058 180.813 46.7511L158.053 57.7677L148.67 62.3054L139.233 66.8722C135.517 68.6722 133.948 73.1669 135.743 76.896L166.897 141.739C168.706 145.481 173.171 147.056 176.9 145.254L188.867 139.455L195.084 138.832L220.149 140.703C224.275 141.014 227.863 137.91 228.16 133.783L233.486 61.9937C233.797 57.8534 230.703 54.2519 226.577 53.9406ZM222.197 121.108L222.48 122.142C223.045 124.169 221.859 126.282 219.837 126.864L207.913 130.238L218.481 125.119C220.247 124.269 221.533 122.808 222.197 121.108ZM220.84 130.409C222.268 129.998 223.483 129.204 224.402 128.168L224.415 128.325C224.628 130.423 223.102 132.295 220.996 132.506L209.213 133.699L220.84 130.409ZM207.771 56.2224L207.108 53.8685L213.056 53.273C215.161 53.0613 217.027 54.5927 217.238 56.6906L217.267 56.9316L222.409 108.318L207.771 56.2224ZM193.672 51.5296L193.798 51.4867L198.306 50.2115C199.436 49.8986 200.594 50.1255 201.485 50.7347C202.007 51.0892 202.446 51.5724 202.742 52.1527C202.855 52.366 202.939 52.6068 203.01 52.8478L203.406 54.2519L203.872 55.9384L218.424 107.722L193.233 55.2724L193.162 55.1312L191.693 52.082L193.672 51.5296ZM175.304 141.922C173.411 142.843 171.136 142.05 170.217 140.15L169.567 138.803L167.236 133.94L164.509 128.268L139.049 75.2937C138.146 73.3939 138.936 71.1105 140.829 70.1898L147.442 66.9843L151.369 65.0997L159.352 61.2281L160.073 60.8736L173.411 54.4222L175.643 53.3449L178.412 51.9976L181.393 50.566L182.411 50.0689C183.428 49.5869 184.544 49.5869 185.518 49.9982C186.041 50.2115 186.521 50.5369 186.903 50.9757C187.144 51.232 187.341 51.5296 187.497 51.855L187.624 52.1251L188.09 53.1027L188.923 54.8199L189.333 55.67L218.664 116.698C219.569 118.598 218.777 120.881 216.884 121.802L190.082 134.776L187.836 135.854L187.553 135.996L183.47 137.966L178.157 140.547L175.304 141.922ZM220.417 137.03L216.108 136.705L221.363 136.18C222.226 136.094 223.032 135.867 223.766 135.513C223.003 136.519 221.773 137.13 220.417 137.03ZM226.252 109.82L220.983 57.2152L226.308 57.6126C228.4 57.7677 229.983 59.6122 229.827 61.7099L226.252 109.82Z" fill="#C5F4E0"/>
<defs>
<radialGradient id="paint0_radial_272_1435" cx="0" cy="0" r="1" gradientUnits="userSpaceOnUse" gradientTransform="translate(184 97) rotate(90) scale(97 103.865)">
<stop offset="0.4" stop-color="#335544"/>
<stop offset="1" stop-color="#171717" stop-opacity="0"/>
</radialGradient>
</defs>
</svg>
