<svg width="368" height="194" viewBox="0 0 368 194" fill="none" xmlns="http://www.w3.org/2000/svg">
<rect width="368" height="194" fill="url(#paint0_radial_272_1437)"/>
<path d="M172.89 71.0005C172.89 69.4663 174.133 68.2227 175.667 68.2227H197.89C199.424 68.2227 200.668 69.4663 200.668 71.0005C200.668 72.5347 199.424 73.7783 197.89 73.7783H175.667C174.133 73.7783 172.89 72.5347 172.89 71.0005Z" fill="#C5F4E0"/>
<path d="M175.667 79.3341C174.133 79.3341 172.89 80.5777 172.89 82.1119C172.89 83.6461 174.133 84.8898 175.667 84.8898H197.89C199.424 84.8898 200.668 83.6461 200.668 82.1119C200.668 80.5777 199.424 79.3341 197.89 79.3341H175.667Z" fill="#C5F4E0"/>
<path d="M172.89 107.112C172.89 105.578 174.133 104.335 175.667 104.335H197.89C199.424 104.335 200.668 105.578 200.668 107.112C200.668 108.647 199.424 109.89 197.89 109.89H175.667C174.133 109.89 172.89 108.647 172.89 107.112Z" fill="#C5F4E0"/>
<path d="M175.667 115.446C174.133 115.446 172.89 116.69 172.89 118.224C172.89 119.758 174.133 121.002 175.667 121.002H197.89C199.424 121.002 200.668 119.758 200.668 118.224C200.668 116.69 199.424 115.446 197.89 115.446H175.667Z" fill="#C5F4E0"/>
<path fill-rule="evenodd" clip-rule="evenodd" d="M145.111 104.335C145.111 102.8 146.355 101.557 147.889 101.557H161.778C163.313 101.557 164.556 102.8 164.556 104.335V118.224C164.556 119.758 163.313 121.002 161.778 121.002H147.889C146.355 121.002 145.111 119.758 145.111 118.224V104.335ZM150.667 107.112V115.446H159.001V107.112H150.667Z" fill="#C5F4E0"/>
<path d="M166.52 72.9646C167.605 71.8799 167.605 70.121 166.52 69.0362C165.436 67.9515 163.677 67.9515 162.592 69.0362L153.445 78.1834L149.853 74.5919C148.769 73.5071 147.01 73.5071 145.925 74.5919C144.84 75.6766 144.84 77.4356 145.925 78.5203L153.445 86.0402L166.52 72.9646Z" fill="#C5F4E0"/>
<path fill-rule="evenodd" clip-rule="evenodd" d="M145.111 46C138.975 46 134 50.9747 134 57.1114V134.889C134 141.025 138.975 146 145.111 146H200.668C206.805 146 211.78 141.025 211.78 134.889V57.1114C211.78 50.9747 206.805 46 200.668 46H145.111ZM139.556 57.1114C139.556 54.043 142.043 51.5557 145.111 51.5557H200.668C203.737 51.5557 206.224 54.043 206.224 57.1114V134.889C206.224 137.957 203.737 140.444 200.668 140.444H145.111C142.043 140.444 139.556 137.957 139.556 134.889V57.1114Z" fill="#C5F4E0"/>
<path fill-rule="evenodd" clip-rule="evenodd" d="M217.335 73.7783C217.335 69.1757 221.066 65.4448 225.668 65.4448C230.271 65.4448 234.002 69.1757 234.002 73.7783V130.176L225.668 142.677L217.335 130.176V73.7783ZM225.668 71.0005C224.134 71.0005 222.891 72.2441 222.891 73.7783V79.334H228.446V73.7783C228.446 72.2441 227.203 71.0005 225.668 71.0005ZM225.668 132.661L222.891 128.494V84.8897H228.446V128.494L225.668 132.661Z" fill="#C5F4E0"/>
<defs>
<radialGradient id="paint0_radial_272_1437" cx="0" cy="0" r="1" gradientUnits="userSpaceOnUse" gradientTransform="translate(184 97) rotate(90) scale(97 103.865)">
<stop offset="0.4" stop-color="#335544"/>
<stop offset="1" stop-color="#171717" stop-opacity="0"/>
</radialGradient>
</defs>
</svg>
