<svg width="368" height="194" viewBox="0 0 368 194" fill="none" xmlns="http://www.w3.org/2000/svg">
<rect width="368" height="194" fill="url(#paint0_radial_272_1436)"/>
<path d="M184 46C185.726 46 187.125 47.3991 187.125 49.125V61.625C187.125 63.3509 185.726 64.75 184 64.75C182.274 64.75 180.875 63.3509 180.875 61.625V58.5H162.125V52.25H180.875V49.125C180.875 47.3991 182.274 46 184 46Z" fill="#C5F4E0"/>
<path d="M152.75 46C151.024 46 149.625 47.3991 149.625 49.125V52.25H143.375C138.197 52.25 134 56.4473 134 61.625V136.625C134 141.803 138.197 146 143.375 146H196.5C201.678 146 205.875 141.803 205.875 136.625V61.625C205.875 56.4473 201.678 52.25 196.5 52.25H193.375V58.5H196.5C198.226 58.5 199.625 59.8991 199.625 61.625V136.625C199.625 138.351 198.226 139.75 196.5 139.75H143.375C141.649 139.75 140.25 138.351 140.25 136.625V61.625C140.25 59.8991 141.649 58.5 143.375 58.5H149.625V61.625C149.625 63.3509 151.024 64.75 152.75 64.75C154.476 64.75 155.875 63.3509 155.875 61.625V49.125C155.875 47.3991 154.476 46 152.75 46Z" fill="#C5F4E0"/>
<path d="M146.5 86.625C146.5 84.8991 147.899 83.5 149.625 83.5H190.25C191.976 83.5 193.375 84.8991 193.375 86.625C193.375 88.3509 191.976 89.75 190.25 89.75H149.625C147.899 89.75 146.5 88.3509 146.5 86.625Z" fill="#C5F4E0"/>
<path d="M149.625 99.125C147.899 99.125 146.5 100.524 146.5 102.25C146.5 103.976 147.899 105.375 149.625 105.375H171.5C173.226 105.375 174.625 103.976 174.625 102.25C174.625 100.524 173.226 99.125 171.5 99.125H149.625Z" fill="#C5F4E0"/>
<path d="M146.5 117.875C146.5 116.149 147.899 114.75 149.625 114.75H184C185.726 114.75 187.125 116.149 187.125 117.875C187.125 119.601 185.726 121 184 121H149.625C147.899 121 146.5 119.601 146.5 117.875Z" fill="#C5F4E0"/>
<path fill-rule="evenodd" clip-rule="evenodd" d="M215.25 67.875C215.25 62.6972 219.447 58.5 224.625 58.5C229.803 58.5 234 62.6972 234 67.875V131.321L224.625 145.384L215.25 131.321V67.875ZM224.625 64.75C222.899 64.75 221.5 66.1491 221.5 67.875V74.125H227.75V67.875C227.75 66.1491 226.351 64.75 224.625 64.75ZM224.625 134.116L227.75 129.429V80.375H221.5V129.429L224.625 134.116Z" fill="#C5F4E0"/>
<defs>
<radialGradient id="paint0_radial_272_1436" cx="0" cy="0" r="1" gradientUnits="userSpaceOnUse" gradientTransform="translate(184 97) rotate(90) scale(97 103.865)">
<stop offset="0.4" stop-color="#335544"/>
<stop offset="1" stop-color="#171717" stop-opacity="0"/>
</radialGradient>
</defs>
</svg>
